<svg width="32" height="32" viewBox="0 0 32 32" fill="none" xmlns="http://www.w3.org/2000/svg">
<rect width="32" height="32" rx="4" fill="#2040D8"/>
<path d="M5 20.8889V11.1111C5 7.73604 7.73604 5 11.1111 5H20.8889C24.2639 5 27 7.73604 27 11.1111V20.8889C27 24.2639 24.2639 27 20.8889 27H11.1111C7.73604 27 5 24.2639 5 20.8889Z" stroke="white" stroke-width="2"/>
<path d="M21.5 19.0556C21.5 19.0556 19.6667 21.5 16 21.5C12.3333 21.5 10.5 19.0556 10.5 19.0556" stroke="white" stroke-width="2" stroke-linecap="round" stroke-linejoin="round"/>
<path d="M11.7695 15.1538C10.8348 15.1538 10.0771 14.3962 10.0771 13.4615C10.0771 12.5269 10.8348 11.7692 11.7695 11.7692C12.7041 11.7692 13.4618 12.5269 13.4618 13.4615C13.4618 14.3962 12.7041 15.1538 11.7695 15.1538Z" fill="white"/>
<path d="M20.2309 15.1538C19.2964 15.1538 18.5386 14.3962 18.5386 13.4615C18.5386 12.5269 19.2964 11.7692 20.2309 11.7692C21.1654 11.7692 21.9232 12.5269 21.9232 13.4615C21.9232 14.3962 21.1654 15.1538 20.2309 15.1538Z" fill="white"/>
</svg>
